<mxfile host="app.diagrams.net" modified="2023-10-22T23:43:59.821Z" agent="Mozilla/5.0 (Macintosh; Intel Mac OS X 10_15_7) AppleWebKit/605.1.15 (KHTML, like Gecko) Version/16.6 Safari/605.1.15" version="22.0.6" etag="C8zJIcTOQRMbJaFWiQrx" type="github">
  <diagram name="Страница — 1" id="4bnazX1cfa6WuCxiuDDr">
    <mxGraphModel>
      <root>
        <mxCell id="0" />
        <mxCell id="1" parent="0" />
      </root>
    </mxGraphModel>
  </diagram>
</mxfile>
